<svg width="100%" height="100%" viewBox="0 0 1318 211" fill="none" xmlns="http://www.w3.org/2000/svg">
<path d="M1317.56 32.8499V2.19995C1317.56 1.09995 1316.66 0.199951 1315.56 0.199951H1284.01C1282.91 0.199951 1282.01 1.09995 1282.01 2.19995V32.8499V178.11V208.76C1282.01 209.86 1282.91 210.76 1284.01 210.76H1315.56C1316.66 210.76 1317.56 209.86 1317.56 208.76V178.11V32.8499Z" fill="currentColor"/>
<path d="M548.52 1.44997L478.34 208.12C477.9 209.42 478.86 210.76 480.23 210.76H513.91C514.77 210.76 515.53 210.21 515.8 209.4L535.4 151.67C535.68 150.86 536.44 150.31 537.29 150.31H647.64C648.5 150.31 649.26 150.86 649.53 151.67L669.13 209.4C669.41 210.21 670.17 210.76 671.02 210.76H704.7C706.07 210.76 707.03 209.41 706.59 208.12L636.46 1.44997C636.18 0.639966 635.42 0.0899658 634.57 0.0899658H550.42C549.56 0.0899658 548.8 0.639966 548.53 1.44997H548.52ZM635.22 117.66H549.76C548.39 117.66 547.43 116.31 547.87 115.02L575.35 34.1C575.63 33.29 576.39 32.74 577.24 32.74H607.75C608.61 32.74 609.37 33.29 609.64 34.1L637.12 115.02C637.56 116.32 636.6 117.66 635.23 117.66H635.22Z" fill="currentColor"/>
<path d="M1174.63 0.0899658H1090.48C1089.62 0.0899658 1088.86 0.639966 1088.59 1.44997L1018.41 208.12C1017.97 209.42 1018.93 210.76 1020.3 210.76H1053.98C1054.84 210.76 1055.6 210.21 1055.87 209.4L1075.47 151.67C1075.75 150.86 1076.51 150.31 1077.36 150.31H1187.71C1188.57 150.31 1189.33 150.86 1189.6 151.67L1209.2 209.4C1209.48 210.21 1210.24 210.76 1211.09 210.76H1244.77C1246.14 210.76 1247.1 209.41 1246.66 208.12L1176.53 1.44997C1176.25 0.639966 1175.49 0.0899658 1174.64 0.0899658H1174.63ZM1175.29 117.66H1089.83C1088.46 117.66 1087.5 116.31 1087.94 115.02L1115.42 34.1C1115.7 33.29 1116.46 32.74 1117.31 32.74H1147.82C1148.68 32.74 1149.44 33.29 1149.71 34.1L1177.19 115.02C1177.63 116.32 1176.67 117.66 1175.3 117.66H1175.29Z" fill="currentColor"/>
<path d="M176.71 175.21H147.66L88.97 1.36C88.7 0.55 87.93 0 87.08 0H2C0.9 0 0 0.9 0 2V208.76C0 209.86 0.9 210.76 2 210.76H33.55C34.65 210.76 35.55 209.86 35.55 208.76V37.55C35.55 36.45 36.45 35.55 37.55 35.55H61.18C62.04 35.55 62.8 36.1 63.07 36.91L121.29 209.4C121.56 210.21 122.33 210.76 123.18 210.76H210.24C211.34 210.76 212.24 209.86 212.24 208.76V2.09C212.24 0.99 211.34 0.09 210.24 0.09H178.69C177.59 0.09 176.69 0.99 176.69 2.09V175.21H176.71Z" fill="currentColor"/>
<path d="M267.62 210.76H437.84C438.94 210.76 439.84 209.86 439.84 208.76V180.11C439.84 179.01 438.94 178.11 437.84 178.11H307.52C306.99 178.11 306.48 177.9 306.11 177.52L301.75 173.16C301.37 172.78 301.16 172.28 301.16 171.75V128.12C301.16 127.59 301.37 127.08 301.75 126.71L306.16 122.3C306.54 121.93 307.04 121.71 307.57 121.71H423.22C424.32 121.71 425.22 120.81 425.22 119.71V91.06C425.22 89.96 424.32 89.06 423.22 89.06H307.56C307.03 89.06 306.52 88.85 306.15 88.47L301.74 84.07C301.36 83.69 301.15 83.19 301.15 82.66V39.03C301.15 38.5 301.36 37.99 301.74 37.62L306.11 33.25C306.49 32.87 306.99 32.66 307.52 32.66H437.83C438.93 32.66 439.83 31.76 439.83 30.66V2C439.83 0.9 438.93 0 437.83 0H267.61C266.51 0 265.61 0.9 265.61 2V208.76C265.61 209.86 266.51 210.76 267.61 210.76H267.62Z" fill="currentColor"/>
<path d="M932.02 60.9C932.02 28.15 905.91 1.28004 873.41 0.0900391L745.75 0.0400391C744.65 0.0400391 743.75 0.940039 743.75 2.04004V208.92C743.75 210.02 744.65 210.92 745.75 210.92H777.3C778.4 210.92 779.3 210.02 779.3 208.92V127.99C779.3 127.46 779.51 126.95 779.89 126.58L784.29 122.18C784.67 121.8 785.17 121.59 785.7 121.59H850.55C851.3 121.59 851.99 122.01 852.33 122.68L896.8 209.83C897.14 210.5 897.83 210.92 898.58 210.92H932.41C933.9 210.92 934.87 209.34 934.19 208.01L888.84 119.14C914.39 111.39 932.03 87.78 932.03 60.9H932.02ZM779.88 37.89L784.27 33.5C784.65 33.12 785.15 32.91 785.68 32.91H871.61C887.2 33.16 899.77 46.3 899.13 62.04C898.52 77.15 885.67 88.9 870.54 88.9H869.15V88.94H785.73C785.2 88.94 784.69 88.73 784.32 88.35L779.88 83.91C779.5 83.53 779.29 83.03 779.29 82.5V39.3C779.29 38.77 779.5 38.26 779.88 37.89Z" fill="currentColor"/>
</svg>
