<?xml version="1.0" encoding="UTF-8" standalone="no"?>
<!DOCTYPE svg PUBLIC "-//W3C//DTD SVG 1.1//EN" "http://www.w3.org/Graphics/SVG/1.1/DTD/svg11.dtd">
<svg width="100%" height="100%" viewBox="0 0 387 278" version="1.1" xmlns="http://www.w3.org/2000/svg" xmlns:xlink="http://www.w3.org/1999/xlink" xml:space="preserve" xmlns:serif="http://www.serif.com/" style="fill-rule:evenodd;clip-rule:evenodd;stroke-linejoin:round;stroke-miterlimit:2;">
    <path d="M276.056,65.337L277.47,66.77L280.296,70.496L283.971,76.229L286.797,81.388L290.189,87.98L293.298,94.859L298.951,109.191L302.626,119.223L304.604,125.815L306.017,132.408L306.583,135.56L311.388,132.694L316.193,130.401L322.128,128.395L329.195,126.962L331.739,126.675L341.349,126.675L348.415,127.821L354.351,129.541L358.59,131.261L363.113,133.554L367.352,136.42L371.31,139.573L376.397,144.732L379.789,149.319L381.485,151.898L381.202,152.471L378.093,148.745L375.267,145.879L372.158,143.299L367.635,140.146L362.265,137.28L354.633,134.701L349.263,133.554L343.327,132.981L340.501,132.981L335.978,133.554L332.587,135.274L331.173,136.707L329.477,139.287L328.347,142.439L327.216,148.745L325.52,157.631L322.976,167.949L319.585,179.988L317.041,187.44L313.932,194.892L311.388,200.338L307.713,206.931L304.887,211.803L301.778,216.389L298.386,220.975L295.277,224.988L291.602,229.288L287.362,233.874L283.688,237.6L281.427,239.606L277.187,243.332L272.382,247.058L267.294,250.785L261.924,254.224L255.423,257.95L248.074,261.676L239.877,265.116L229.702,268.555L221.788,270.562L212.46,272.282L205.394,273.141L201.437,273.428L184.478,273.428L175.716,272.568L167.236,271.135L159.604,269.415L151.125,266.836L144.059,264.256L137.558,261.39L131.622,258.523L125.121,254.797L118.903,250.785L113.815,247.058L109.858,243.905L106.184,240.753L103.922,238.746L100.531,235.593L95.443,230.434L93.464,228.141L90.073,224.128L86.398,219.256L82.724,214.096L79.049,208.077L76.505,203.491L73.113,196.899L70.004,189.733L66.895,181.134L64.069,171.102L60.96,159.064L59.264,150.752L57.85,142.439L56.437,138.713L54.741,136.42L52.763,134.701L49.936,133.554L45.414,132.981L39.195,133.267L33.825,134.127L27.607,135.847L22.236,138.14L17.997,140.433L14.04,143.299L10.365,146.452L6.691,150.178L5.277,151.898L5.277,151.038L8.104,147.025L10.648,143.873L15.453,139L19.127,136.134L23.084,133.554L30.151,130.114L36.369,128.108L42.305,126.962L44.848,126.675L54.741,126.675L61.807,127.821L67.743,129.541L73.679,132.121L77.919,134.414L79.897,135.56L80.18,132.121L81.593,125.528L84.137,117.216L89.225,103.745L93.464,93.426L97.987,83.968L100.813,78.522L104.205,73.076L107.314,68.49L109.575,65.623L109.575,66.483L105.901,72.216L102.509,78.235L99.965,83.108L96.856,90.273L93.747,98.872L91.486,106.898L89.79,114.35L88.377,123.809L87.811,130.401L87.811,144.446L88.094,147.312L90.638,143.299L93.464,140.146L97.139,137.28L101.661,134.987L106.466,133.554L108.162,133.267L114.38,133.267L118.055,134.127L121.447,135.847L124.273,138.427L125.969,141.866L126.817,146.166L126.817,149.032L129.926,147.599L132.753,147.025L135.862,147.025L140.102,147.885L144.341,149.605L147.168,151.612L150.277,154.478L153.103,158.491L155.365,163.363L153.386,148.172L152.256,141.006L151.973,137.853L151.973,134.414L152.256,134.414L153.386,142.726L155.647,154.478L156.495,162.217L156.778,166.803L156.778,172.249L156.495,177.121L156.778,176.835L159.039,173.395L161.583,170.529L163.562,168.523L166.671,166.516L170.063,164.796L171.758,164.223L173.172,164.223L172.041,157.344L172.041,147.312L172.606,146.739L174.02,159.924L175.15,167.376L175.15,171.675L174.302,177.695L172.324,184.86L170.628,191.739L169.215,200.052L168.367,208.937L168.367,220.402L168.932,226.708L170.063,232.727L172.041,238.746L175.15,244.765L177.411,247.918L180.803,251.931L183.63,254.511L187.587,257.377L191.544,259.67L195.218,261.39L194.088,260.817L189.283,258.237L186.174,255.944L183.347,253.364L180.521,250.498L177.694,246.485L175.433,242.186L173.737,237.026L172.606,231.294L172.041,225.848L172.041,216.676L172.889,210.083L174.302,203.778L175.998,198.045L178.259,192.026L181.934,183.427L184.478,175.402L186.456,167.089L187.022,164.796L187.304,165.943L186.174,172.535L184.478,179.988L181.934,187.727L179.107,195.179L177.129,201.771L175.716,208.077L174.868,214.67L174.868,224.128L175.716,231.007L176.846,235.88L178.542,240.179L180.521,243.905L183.347,247.632L187.022,251.358L191.261,254.511L197.197,257.664L203.133,259.67L207.372,260.53L209.916,260.817L217.548,260.817L220.092,260.53L223.201,258.81L225.745,256.804L228.288,254.511L230.832,251.071L233.376,246.199L234.789,241.899L235.637,236.453L235.355,231.581L234.224,227.281L232.246,222.408L229.419,217.536L226.027,212.95L222.918,209.224L219.809,205.784L216.982,202.345L215.287,199.192L214.439,196.612L214.439,191.739L215.569,188.3L215.569,187.727L214.156,190.306L213.591,193.172L213.591,196.039L214.439,200.338L215.852,203.778L218.113,207.79L223.201,215.529L225.462,220.115L226.875,224.988L227.441,228.714L227.441,234.447L226.593,238.46L225.462,241.326L222.918,245.052L220.374,247.345L216.982,249.065L214.721,249.638L208.786,249.638L204.263,248.492L199.741,246.199L196.066,243.619L193.523,241.039L190.979,237.026L189.283,232.727L188.152,227.568L187.869,225.275L187.869,212.95L189,206.357L190.413,201.485L193.24,194.606L196.349,188.586L198.61,185.434L202.567,180.274L205.959,174.542L208.786,167.949L211.047,161.07L212.743,153.331L213.591,147.599L214.156,147.025L214.156,157.057L213.308,162.217L212.743,163.937L215.852,164.796L220.374,167.089L223.483,169.382L226.31,172.249L228.288,175.115L229.419,177.121L229.419,166.23L229.984,158.491L231.115,151.038L233.376,139L233.659,136.994L233.941,136.994L233.941,140.72L231.68,156.198L230.832,163.363L231.963,160.497L234.224,156.771L236.768,153.618L239.595,151.038L242.986,149.032L247.226,147.599L250.335,147.025L253.162,147.025L257.119,147.885L259.38,149.032L259.38,145.879L260.228,141.58L261.924,138.427L263.902,136.42L266.729,134.701L270.403,133.554L271.817,133.267L277.752,133.267L281.992,134.127L285.667,135.56L289.341,137.567L291.885,139.573L294.146,141.58L296.69,145.019L297.82,147.025L297.82,147.599L298.386,147.599L298.386,130.974L297.538,121.802L296.125,113.49L294.146,104.891L291.602,96.579L288.776,89.127L285.667,82.248L281.709,74.509L277.752,68.203L276.056,65.91L276.056,65.337Z" style="fill:none;fill-rule:nonzero;stroke:rgb(129,129,129);stroke-width:2px;"/>
    <path d="M188.152,4.572L197.762,4.572L209.068,5.432L219.526,7.151L226.875,8.871L236.203,11.738L244.4,14.89L251.183,18.043L258.249,21.769L263.902,25.209L267.294,27.502L272.099,30.942L277.187,34.954L281.427,38.68L285.101,42.12L290.754,47.853L292.733,50.146L296.125,54.158L299.799,59.031L303.191,63.904L307.148,70.209L309.409,74.222L309.127,74.795L305.452,71.929L300.364,68.203L293.863,63.904L288.21,60.464L282.275,57.025L275.208,53.298L265.881,48.999L255.988,44.986L245.53,41.26L235.355,38.107L236.485,38.68L240.442,40.4L242.421,42.12L243.552,44.7L243.552,46.706L245.248,47.279L248.922,49.859L251.466,52.152L254.575,56.165L257.119,60.178L259.38,64.477L262.207,71.929L263.62,77.662L264.185,81.388L264.468,87.407L263.902,92.566L262.772,96.866L261.359,100.305L259.38,103.745L256.271,107.184L253.727,109.477L249.487,112.057L244.117,114.063L241.29,114.637L233.942,114.637L231.68,114.35L226.875,116.93L222.353,118.649L217.83,119.796L213.308,119.796L208.503,118.936L202.567,117.216L198.328,115.497L199.458,115.21L205.111,116.93L208.786,117.503L207.09,114.923L205.959,111.77L205.676,108.331L206.242,106.038L207.655,103.745L210.199,102.312L211.612,101.738L210.199,100.305L211.612,100.879L215.852,103.172L217.548,104.605L219.244,107.471L220.092,109.191L220.092,109.764L221.505,110.337L223.766,110.051L226.027,109.477L224.614,108.904L224.049,107.471L222.636,106.898L220.657,103.172L216.7,100.879L216.417,100.305L218.113,100.879L221.788,102.312L228.006,103.745L231.68,105.178L232.246,105.465L231.68,107.184L230.55,108.331L229.984,108.331L229.984,108.904L233.094,108.331L234.507,107.471L235.072,106.611L237.616,107.184L237.899,106.324L237.899,103.745L237.616,101.165L234.789,101.165L233.942,100.592L233.942,99.445L237.616,100.305L236.768,96.006L235.355,98.012L233.094,98.299L230.832,96.579L227.723,96.006L226.027,94.859L225.179,93.14L226.593,93.713L230.267,95.146L229.419,92.853L219.809,85.974L216.417,83.681L213.025,79.955L209.351,77.089L205.394,74.509L202.567,72.216L200.871,69.923L199.741,67.916L200.023,70.209L201.719,73.649L203.981,75.655L206.807,77.662L208.503,79.095L208.786,80.815L207.372,81.388L203.698,80.241L198.328,78.522L192.675,77.375L190.413,77.089L177.694,76.802L174.02,75.942L171.476,74.509L172.606,75.942L175.998,77.948L178.542,78.808L181.934,79.382L189.565,79.668L194.936,80.241L198.328,81.388L201.437,83.394L202.567,84.827L202.567,86.547L201.154,87.694L193.24,89.413L189.848,90.847L192.109,91.993L192.109,93.14L185.326,95.719L183.347,96.866L185.891,97.726L186.174,98.872L184.195,100.305L179.39,102.598L177.411,104.031L177.129,104.605L178.542,104.891L179.673,106.038L179.39,107.471L174.302,111.197L169.497,114.637L168.367,115.21L169.78,116.07L170.063,117.216L168.932,118.076L166.105,118.936L161.583,118.936L158.191,117.216L155.082,114.923L153.669,114.35L152.256,114.637L145.189,114.637L141.232,113.777L136.71,112.057L133.035,109.764L130.209,107.471L127.382,104.605L124.556,100.019L122.86,95.433L122.012,91.133L121.729,88.554L121.729,83.681L122.577,77.375L124.273,71.069L126.534,65.05L129.644,59.031L132.47,55.018L135.014,52.152L137.84,49.286L141.797,46.706L142.363,46.419L143.211,42.98L144.907,40.973L148.864,38.967L150.842,38.107L140.667,41.26L131.622,44.413L123.708,47.566L116.642,50.719L109.575,54.158L103.357,57.311L96.856,61.037L90.073,65.337L83.854,69.636L78.484,73.649L76.788,74.795L77.353,73.076L80.18,68.203L83.572,63.044L86.398,59.031L89.225,55.305L92.334,51.579L94.878,48.712L96.856,46.419L103.357,39.827L105.618,37.821L109.575,34.381L115.228,30.082L120.599,26.355L126.534,22.629L132.753,19.19L139.819,15.75L149.146,12.024L157.343,9.444L165.257,7.438L175.15,5.718L183.347,4.858L188.152,4.572Z" style="fill:none;fill-rule:nonzero;stroke:rgb(129,129,129);stroke-width:2px;"/>
</svg>
